<?xml version="1.0"?>
<svg xmlns="http://www.w3.org/2000/svg" xmlns:xlink="http://www.w3.org/1999/xlink" xmlns:svgjs="http://svgjs.com/svgjs" version="1.1" width="512" height="512" x="0" y="0" viewBox="0 0 479 479.9983" style="enable-background:new 0 0 512 512" xml:space="preserve" class=""><g transform="matrix(1,0,0,1,20.000000000000114,1.1368683772161603e-13)"><path xmlns="http://www.w3.org/2000/svg" d="m224.5 278.839844v9.160156h16v-9.160156c8.875-2.761719 15.179688-10.644532 15.921875-19.90625.742187-9.265625-4.226563-18.050782-12.546875-22.191406l-15.59375-7.792969c-2.839844-1.410157-4.339844-4.59375-3.613281-7.683594.730469-3.089844 3.488281-5.273437 6.664062-5.265625h2.335938c3.769531.003906 6.828125 3.058594 6.832031 6.832031v1.167969h16v-1.167969c-.039062-9.941406-6.511719-18.710937-16-21.671875v-9.160156h-16v9.160156c-8.875 2.757813-15.179688 10.640625-15.921875 19.90625-.742187 9.261719 4.222656 18.046875 12.546875 22.1875l15.589844 7.792969c2.84375 1.410156 4.339844 4.59375 3.613281 7.683594-.726563 3.089843-3.488281 5.273437-6.660156 5.269531h-2.335938c-3.773437-.007812-6.828125-3.0625-6.832031-6.832031v-1.167969h-16v1.167969c.035156 9.9375 6.511719 18.707031 16 21.671875zm0 0" fill="#126e82" data-original="#000000" style="" class=""/><path xmlns="http://www.w3.org/2000/svg" d="m272.5 232h16v16h-16zm0 0" fill="#126e82" data-original="#000000" style="" class=""/><path xmlns="http://www.w3.org/2000/svg" d="m176.5 240h16v16h-16zm0 0" fill="#126e82" data-original="#000000" style="" class=""/><path xmlns="http://www.w3.org/2000/svg" d="m.5 336v136c0 4.417969 3.582031 8 8 8h64c4.417969 0 8-3.582031 8-8v-14.714844l150.816406 22.625c.390625.058594.785156.085938 1.183594.089844 1.015625 0 2.023438-.195312 2.96875-.570312l145.03125-58c14.1875-5.699219 22.328125-20.671876 19.394531-35.675782-2.929687-15.007812-16.105469-25.816406-31.394531-25.753906-.566406-.003906-1.128906.054688-1.679688.175781l-6.320312 1.359375v-249.535156c0-2.675781-1.335938-5.171875-3.5625-6.65625l-24-16c-2.6875-1.796875-6.191406-1.796875-8.878906 0l-24 16c-2.222656 1.484375-3.558594 3.980469-3.558594 6.65625v67.789062c-4.785156-5.101562-10.15625-9.617187-16-13.453124v-86.335938h16c3.234375-.003906 6.152344-1.953125 7.386719-4.941406 1.238281-2.988282.554687-6.429688-1.730469-8.714844l-64-64c-3.125-3.125-8.1875-3.125-11.3125 0l-64 64c-2.289062 2.285156-2.972656 5.726562-1.734375 8.714844 1.238281 2.988281 4.15625 4.9375 7.390625 4.941406h16v86.335938c-5.847656 3.835937-11.21875 8.351562-16 13.453124v-27.789062c0-2.675781-1.335938-5.171875-3.5625-6.65625l-24-16c-2.6875-1.796875-6.191406-1.796875-8.878906 0l-24 16c-2.222656 1.484375-3.558594 3.980469-3.558594 6.65625v164.796875c-9.371094 3.835937-17.714844 9.8125-24.351562 17.457031-.765626-3.621094-3.949219-6.222656-7.648438-6.253906h-64c-4.417969 0-8 3.578125-8 8zm312-219.722656 16-10.679688 16 10.664063v248.695312l-32 6.855469v-95.367188c10.664062-23.128906 10.664062-49.765624 0-72.894531zm-49.601562 266.167968c-4.144532-13.316406-16.453126-22.402343-30.398438-22.445312h-32v-38.113281c20.554688 8.148437 43.445312 8.148437 64 0v60.214843zm-78.398438-68.800781v31.554688c-4.0625-7.296875-9.492188-13.738281-16-18.96875v-26.023438c4.78125 5.101563 10.152344 9.617188 16 13.457031zm96 0c5.84375-3.835937 11.214844-8.351562 16-13.453125v75.039063l-16 3.433593zm-88-249.644531h-4.6875l44.6875-44.691406 44.6875 44.691406h-4.6875c-4.417969 0-8 3.578125-8 8v86.109375c-20.554688-8.148437-43.445312-8.148437-64 0v-86.109375c0-4.421875-3.582031-8-8-8zm40 104c39.761719 0 72 32.234375 72 72 0 39.761719-32.238281 72-72 72-39.765625 0-72-32.238281-72-72 .046875-39.746094 32.253906-71.953125 72-72zm-112-11.722656 16-10.679688 16 10.664063v47.273437c-10.667969 23.128906-10.667969 49.765625 0 72.894532v40.367187c-10.09375-4.257813-21.148438-5.714844-32-4.222656zm8 171.722656c23.804688.105469 43.964844 17.582031 47.445312 41.132812.566407 3.9375 3.9375 6.863282 7.914063 6.867188h48.640625c8.835938 0 16 7.160156 16 16 0 8.835938-7.164062 16-16 16h-64v16h64c15.109375-.027344 28.152344-10.605469 31.296875-25.386719l105.503906-22.613281c7.460938.308594 13.699219 5.785156 14.96875 13.148438 1.273438 7.359374-2.761719 14.613281-9.691406 17.410156l-143.039063 57.207031-151.039062-22.65625v-69.984375c.269531-.636719.457031-1.304688.550781-1.992188 3.480469-23.550781 23.640625-41.027343 47.449219-41.132812zm-112 16h48v120h-48zm0 0" fill="#126e82" data-original="#000000" style="" class=""/><path xmlns="http://www.w3.org/2000/svg" d="m376.5 120h16v16h-16zm0 0" fill="#126e82" data-original="#000000" style="" class=""/><path xmlns="http://www.w3.org/2000/svg" d="m376.5 152h16v16h-16zm0 0" fill="#126e82" data-original="#000000" style="" class=""/><path xmlns="http://www.w3.org/2000/svg" d="m376.5 184h16v32h-16zm0 0" fill="#126e82" data-original="#000000" style="" class=""/><path xmlns="http://www.w3.org/2000/svg" d="m72.5 184h16v16h-16zm0 0" fill="#126e82" data-original="#000000" style="" class=""/><path xmlns="http://www.w3.org/2000/svg" d="m72.5 216h16v16h-16zm0 0" fill="#126e82" data-original="#000000" style="" class=""/><path xmlns="http://www.w3.org/2000/svg" d="m72.5 248h16v32h-16zm0 0" fill="#126e82" data-original="#000000" style="" class=""/><path xmlns="http://www.w3.org/2000/svg" d="m72.5 64h16v16h-16zm0 0" fill="#126e82" data-original="#000000" style="" class=""/><path xmlns="http://www.w3.org/2000/svg" d="m48.5 88h16v16h-16zm0 0" fill="#126e82" data-original="#000000" style="" class=""/><path xmlns="http://www.w3.org/2000/svg" d="m96.5 88h16v16h-16zm0 0" fill="#126e82" data-original="#000000" style="" class=""/><path xmlns="http://www.w3.org/2000/svg" d="m72.5 112h16v16h-16zm0 0" fill="#126e82" data-original="#000000" style="" class=""/><path xmlns="http://www.w3.org/2000/svg" d="m408.5 24h16v16h-16zm0 0" fill="#126e82" data-original="#000000" style="" class=""/><path xmlns="http://www.w3.org/2000/svg" d="m392.5 40h16v16h-16zm0 0" fill="#126e82" data-original="#000000" style="" class=""/><path xmlns="http://www.w3.org/2000/svg" d="m424.5 40h16v16h-16zm0 0" fill="#126e82" data-original="#000000" style="" class=""/><path xmlns="http://www.w3.org/2000/svg" d="m408.5 56h16v16h-16zm0 0" fill="#126e82" data-original="#000000" style="" class=""/></g></svg>
