<svg id="visual" viewBox="0 522 900 78" width="900" height="78" xmlns="http://www.w3.org/2000/svg" xmlns:xlink="http://www.w3.org/1999/xlink" version="1.1"><path d="M0 563L13.7 567.5C27.3 572 54.7 581 82 586.3C109.3 591.7 136.7 593.3 163.8 588.7C191 584 218 573 245.2 569.2C272.3 565.3 299.7 568.7 327 567C354.3 565.3 381.7 558.7 409 553.5C436.3 548.3 463.7 544.7 491 549C518.3 553.3 545.7 565.7 573 574.5C600.3 583.3 627.7 588.7 654.8 586.2C682 583.7 709 573.3 736.2 573.5C763.3 573.7 790.7 584.3 818 588.3C845.3 592.3 872.7 589.7 886.3 588.3L900 587L900 601L886.3 601C872.7 601 845.3 601 818 601C790.7 601 763.3 601 736.2 601C709 601 682 601 654.8 601C627.7 601 600.3 601 573 601C545.7 601 518.3 601 491 601C463.7 601 436.3 601 409 601C381.7 601 354.3 601 327 601C299.7 601 272.3 601 245.2 601C218 601 191 601 163.8 601C136.7 601 109.3 601 82 601C54.7 601 27.3 601 13.7 601L0 601Z" fill="#126E82" stroke-linecap="round" stroke-linejoin="miter"></path></svg>