<svg id="visual" viewBox="0 0 900 78" width="900" height="78" xmlns="http://www.w3.org/2000/svg" xmlns:xlink="http://www.w3.org/1999/xlink" version="1.1"><path d="M0 41L13.7 36C27.3 31 54.7 21 82 18.7C109.3 16.3 136.7 21.7 163.8 20.7C191 19.7 218 12.3 245.2 9.5C272.3 6.7 299.7 8.3 327 13.5C354.3 18.7 381.7 27.3 409 27C436.3 26.7 463.7 17.3 491 15.2C518.3 13 545.7 18 573 25.5C600.3 33 627.7 43 654.8 45.7C682 48.3 709 43.7 736.2 37.5C763.3 31.3 790.7 23.7 818 25.7C845.3 27.7 872.7 39.3 886.3 45.2L900 51L900 0L886.3 0C872.7 0 845.3 0 818 0C790.7 0 763.3 0 736.2 0C709 0 682 0 654.8 0C627.7 0 600.3 0 573 0C545.7 0 518.3 0 491 0C463.7 0 436.3 0 409 0C381.7 0 354.3 0 327 0C299.7 0 272.3 0 245.2 0C218 0 191 0 163.8 0C136.7 0 109.3 0 82 0C54.7 0 27.3 0 13.7 0L0 0Z" fill="#126E82" stroke-linecap="round" stroke-linejoin="miter"></path></svg>